<?xml version="1.0" encoding="UTF-8"?>
<svg xmlns="http://www.w3.org/2000/svg" xmlns:xlink="http://www.w3.org/1999/xlink" width="2000px" height="2000px" viewBox="0 0 2000 2000" version="1.1">
<g id="surface1">
<rect x="0" y="0" width="2000" height="2000" style="fill:rgb(100%,100%,100%);fill-opacity:1;stroke:none;"/>
<path style=" stroke:none;fill-rule:nonzero;fill:rgb(100%,100%,100%);fill-opacity:1;" d="M -172.0625 91.226562 L 73.578125 91.226562 L 73.578125 336.867188 L -172.0625 336.867188 Z M -172.0625 91.226562 "/>
<path style=" stroke:none;fill-rule:nonzero;fill:rgb(0%,65.098039%,4.313725%);fill-opacity:1;" d="M 143.023438 1030.054688 L 156.746094 1054.210938 C 149.882812 1060.246094 128.476562 1077.539062 97.734375 1077.539062 C 52.445312 1077.539062 26.371094 1049.542969 26.371094 1002.882812 C 26.371094 954.023438 53.816406 923.832031 101.851562 923.832031 C 125.457031 923.832031 149.882812 933.4375 149.882812 933.4375 L 148.511719 978.453125 L 123.808594 978.453125 L 119.964844 958.964844 C 119.964844 958.964844 112.007812 956.769531 101.027344 956.769531 C 81.265625 956.769531 68.914062 969.945312 68.914062 997.390625 C 68.914062 1027.308594 80.441406 1044.601562 103.222656 1044.601562 C 122.4375 1044.601562 134.515625 1034.996094 143.023438 1030.054688 Z M 283.148438 1074.796875 L 278.207031 1056.953125 C 278.207031 1056.953125 257.070312 1077.539062 233.742188 1077.539062 C 207.117188 1077.539062 190.921875 1061.894531 190.921875 1034.445312 C 190.921875 1002.058594 215.351562 989.15625 257.070312 989.15625 L 276.285156 989.15625 L 276.285156 974.0625 C 276.285156 960.0625 268.875 954.023438 255.148438 954.023438 C 241.152344 954.023438 230.996094 958.140625 230.996094 958.140625 L 226.878906 975.433594 L 202.175781 975.433594 L 200.253906 934.8125 C 200.253906 934.8125 233.464844 923.832031 259.816406 923.832031 C 301.535156 923.832031 317.457031 938.378906 317.457031 978.179688 L 317.457031 1045.976562 L 338.042969 1050.914062 L 338.042969 1072.875 Z M 276.285156 1012.488281 L 260.640625 1012.488281 C 239.230469 1012.488281 230.722656 1017.976562 230.722656 1030.328125 C 230.722656 1040.757812 236.484375 1046.796875 246.914062 1046.796875 C 261.460938 1046.796875 276.285156 1030.878906 276.285156 1030.878906 Z M 629.679688 1052.835938 L 629.679688 1074.796875 L 555.292969 1074.796875 L 555.292969 1052.835938 L 569.84375 1045.976562 L 569.84375 980.648438 C 569.84375 965.550781 565.449219 958.140625 553.921875 958.140625 C 536.082031 958.140625 523.457031 972.414062 523.457031 972.414062 L 523.457031 1045.976562 L 537.726562 1052.835938 L 537.726562 1074.796875 L 468.011719 1074.796875 L 468.011719 1052.835938 L 482.285156 1045.976562 L 482.285156 980.648438 C 482.285156 965.550781 478.441406 958.140625 466.636719 958.140625 C 448.796875 958.140625 435.898438 972.414062 435.898438 972.414062 L 435.898438 1045.976562 L 450.445312 1052.835938 L 450.445312 1074.796875 L 373.589844 1074.796875 L 373.589844 1052.835938 L 394.726562 1045.976562 L 394.726562 956.769531 L 373.863281 949.90625 L 373.863281 927.949219 L 431.230469 926.578125 L 433.152344 946.066406 C 433.152344 946.066406 457.03125 923.832031 481.1875 923.832031 C 500.671875 923.832031 512.75 932.890625 519.0625 947.4375 C 523.730469 942.769531 544.316406 923.832031 568.746094 923.832031 C 597.5625 923.832031 611.015625 942.496094 611.015625 973.238281 L 611.015625 1045.976562 Z M 661.109375 927.949219 L 719.574219 926.578125 L 722.042969 941.949219 C 722.042969 941.949219 740.707031 923.832031 762.664062 923.832031 C 800.820312 923.832031 819.757812 952.101562 819.757812 996.570312 C 819.757812 1047.347656 795.601562 1077.539062 747.570312 1077.539062 C 739.609375 1077.539062 731.375 1076.441406 724.238281 1074.796875 L 724.238281 1109.652344 L 750.3125 1115.964844 L 750.3125 1137.925781 L 661.65625 1137.925781 L 661.65625 1115.964844 L 683.066406 1109.652344 L 683.066406 956.769531 L 661.109375 949.90625 Z M 724.238281 971.867188 L 724.238281 1041.859375 C 728.628906 1043.777344 735.21875 1045.976562 745.648438 1045.976562 C 769.253906 1045.976562 777.214844 1029.507812 777.214844 1001.507812 C 777.214844 973.785156 769.800781 956.769531 749.765625 956.769531 C 731.925781 956.769531 724.238281 971.867188 724.238281 971.867188 Z M 724.238281 971.867188 "/>
<path style=" stroke:none;fill-rule:nonzero;fill:rgb(0%,0%,0%);fill-opacity:1;" d="M 1013.085938 991.351562 C 1013.085938 997.941406 1010.890625 999.3125 1004.027344 999.3125 L 923.605469 999.3125 C 925.800781 1020.449219 941.171875 1034.996094 962.855469 1034.996094 C 974.386719 1034.996094 986.460938 1032.25 996.617188 1028.40625 C 997.714844 1028.132812 998.539062 1027.582031 999.636719 1027.582031 C 1001.558594 1027.582031 1002.929688 1028.683594 1003.480469 1030.878906 L 1007.324219 1044.875 C 1007.597656 1046.25 1007.871094 1047.347656 1007.871094 1048.167969 C 1007.871094 1050.089844 1006.773438 1051.464844 1003.480469 1052.835938 C 990.03125 1058.875 971.640625 1061.621094 957.367188 1061.621094 C 914.273438 1061.621094 888.746094 1034.171875 888.746094 991.351562 C 888.746094 950.179688 915.921875 921.636719 956.820312 921.636719 C 973.5625 921.636719 987.285156 927.949219 996.890625 938.105469 C 1009.519531 951.277344 1013.085938 968.570312 1013.085938 987.234375 Z M 980.421875 977.628906 L 980.421875 974.609375 C 979.875 960.335938 971.640625 947.160156 954.898438 947.160156 C 937.054688 947.160156 926.351562 961.433594 924.15625 977.628906 Z M 1171.871094 1054.757812 C 1171.871094 1056.679688 1170.226562 1058.324219 1167.207031 1058.324219 L 1139.757812 1058.324219 C 1134.269531 1058.324219 1132.074219 1056.679688 1130.152344 1053.386719 L 1104.351562 1011.390625 L 1104.074219 1011.390625 L 1077.726562 1052.835938 C 1075.257812 1056.679688 1072.511719 1058.324219 1067.296875 1058.324219 L 1043.417969 1058.324219 C 1041.21875 1058.324219 1040.398438 1056.953125 1040.398438 1055.03125 C 1040.398438 1053.933594 1040.945312 1052.5625 1041.769531 1051.464844 L 1088.429688 989.429688 L 1047.808594 931.242188 C 1047.257812 930.417969 1046.984375 929.59375 1046.984375 928.773438 C 1046.984375 926.851562 1048.355469 925.203125 1050.828125 925.203125 L 1078.824219 925.203125 C 1082.941406 925.203125 1085.6875 926.851562 1087.332031 929.59375 L 1109.015625 964.179688 L 1109.292969 964.179688 L 1131.796875 929.871094 C 1133.996094 926.574219 1136.191406 925.203125 1139.757812 925.203125 L 1164.1875 925.203125 C 1166.65625 925.203125 1167.753906 926.574219 1167.753906 928.222656 C 1167.753906 929.320312 1167.480469 930.144531 1166.65625 930.96875 L 1124.660156 985.589844 L 1170.5 1050.914062 C 1171.324219 1052.285156 1171.871094 1053.660156 1171.871094 1054.757812 Z M 1335.324219 989.980469 C 1335.324219 1010.839844 1329.011719 1029.78125 1317.484375 1043.230469 C 1307.328125 1054.757812 1293.054688 1061.894531 1275.214844 1061.894531 C 1262.585938 1061.894531 1249.960938 1057.226562 1242 1048.992188 L 1242 1110.476562 C 1242 1115.964844 1239.53125 1117.613281 1234.863281 1117.613281 L 1215.652344 1117.613281 C 1211.261719 1117.613281 1209.0625 1115.144531 1209.0625 1110.476562 L 1209.0625 931.515625 C 1209.0625 926.851562 1211.261719 925.203125 1215.652344 925.203125 L 1232.121094 925.203125 C 1236.785156 925.203125 1239.257812 926.300781 1239.53125 930.417969 L 1239.804688 937.828125 C 1247.765625 928.773438 1263.410156 921.910156 1278.234375 921.910156 C 1296.347656 921.910156 1308.972656 928.773438 1318.03125 938.652344 C 1329.835938 951.554688 1335.324219 970.765625 1335.324219 989.980469 Z M 1300.738281 991.628906 C 1300.738281 978.726562 1298.269531 967.472656 1292.78125 959.789062 C 1287.566406 952.375 1279.878906 948.535156 1270.273438 948.535156 C 1260.117188 948.535156 1247.492188 955.121094 1242 961.984375 L 1242 1021.820312 C 1247.492188 1029.230469 1258.46875 1035.269531 1268.902344 1035.269531 C 1278.507812 1035.269531 1286.191406 1030.878906 1290.859375 1025.113281 C 1297.71875 1016.605469 1300.738281 1005.078125 1300.738281 991.628906 Z M 1411.492188 1051.464844 C 1411.492188 1056.128906 1409.296875 1058.324219 1405.453125 1058.324219 L 1384.59375 1058.324219 C 1380.75 1058.324219 1378.28125 1056.402344 1378.28125 1051.738281 L 1378.28125 871.679688 C 1378.28125 867.015625 1380.203125 865.640625 1383.769531 865.09375 L 1403.53125 862.347656 C 1404.082031 862.347656 1404.90625 862.074219 1405.453125 862.074219 C 1408.746094 862.074219 1411.492188 863.71875 1411.492188 868.113281 Z M 1586.746094 991.628906 C 1586.746094 1031.152344 1562.59375 1061.621094 1519.773438 1061.621094 C 1475.035156 1061.621094 1454.449219 1031.425781 1454.449219 991.351562 C 1454.449219 951.828125 1478.601562 921.636719 1521.421875 921.636719 C 1566.160156 921.636719 1586.746094 951.277344 1586.746094 991.628906 Z M 1552.4375 991.628906 C 1552.4375 969.121094 1545.300781 947.710938 1521.144531 947.710938 C 1496.71875 947.710938 1488.757812 968.84375 1488.757812 990.804688 C 1488.757812 1013.3125 1495.621094 1035.542969 1520.046875 1035.542969 C 1544.203125 1035.542969 1552.4375 1014.132812 1552.4375 991.628906 Z M 1704.910156 926.300781 C 1704.910156 927.125 1704.910156 927.949219 1704.636719 928.773438 L 1701.617188 948.257812 C 1701.339844 950.730469 1699.96875 951.828125 1697.773438 951.828125 L 1696.675781 951.828125 C 1694.480469 951.277344 1691.734375 951.003906 1689.265625 951.003906 C 1679.933594 951.003906 1669.777344 955.945312 1662.914062 964.179688 L 1662.914062 1051.464844 C 1662.914062 1055.855469 1660.992188 1058.324219 1656.328125 1058.324219 L 1636.289062 1058.324219 C 1631.898438 1058.324219 1629.703125 1056.128906 1629.703125 1051.464844 L 1629.703125 932.066406 C 1629.703125 926.574219 1632.445312 925.203125 1636.5625 925.203125 L 1654.132812 925.203125 C 1658.523438 925.203125 1660.992188 926.574219 1660.992188 930.417969 L 1661.265625 939.203125 C 1669.777344 928.496094 1679.109375 921.636719 1694.480469 921.636719 C 1696.675781 921.636719 1699.695312 922.183594 1702.164062 922.734375 C 1704.085938 923.28125 1704.910156 924.105469 1704.910156 926.300781 Z M 1857.109375 991.351562 C 1857.109375 997.941406 1854.910156 999.3125 1848.050781 999.3125 L 1767.628906 999.3125 C 1769.824219 1020.449219 1785.195312 1034.996094 1806.878906 1034.996094 C 1818.40625 1034.996094 1830.484375 1032.25 1840.640625 1028.40625 C 1841.738281 1028.132812 1842.558594 1027.582031 1843.660156 1027.582031 C 1845.578125 1027.582031 1846.953125 1028.683594 1847.5 1030.878906 L 1851.34375 1044.875 C 1851.617188 1046.25 1851.890625 1047.347656 1851.890625 1048.167969 C 1851.890625 1050.089844 1850.792969 1051.464844 1847.5 1052.835938 C 1834.050781 1058.875 1815.660156 1061.621094 1801.386719 1061.621094 C 1758.296875 1061.621094 1732.769531 1034.171875 1732.769531 991.351562 C 1732.769531 950.179688 1759.941406 921.636719 1800.839844 921.636719 C 1817.582031 921.636719 1831.308594 927.949219 1840.914062 938.105469 C 1853.539062 951.277344 1857.109375 968.570312 1857.109375 987.234375 Z M 1824.445312 977.628906 L 1824.445312 974.609375 C 1823.894531 960.335938 1815.660156 947.160156 1798.917969 947.160156 C 1781.078125 947.160156 1770.371094 961.433594 1768.175781 977.628906 Z M 1973.625 926.300781 C 1973.625 927.125 1973.625 927.949219 1973.347656 928.773438 L 1970.328125 948.257812 C 1970.054688 950.730469 1968.683594 951.828125 1966.488281 951.828125 L 1965.390625 951.828125 C 1963.195312 951.277344 1960.449219 951.003906 1957.976562 951.003906 C 1948.644531 951.003906 1938.492188 955.945312 1931.628906 964.179688 L 1931.628906 1051.464844 C 1931.628906 1055.855469 1929.707031 1058.324219 1925.042969 1058.324219 L 1905.003906 1058.324219 C 1900.613281 1058.324219 1898.417969 1056.128906 1898.417969 1051.464844 L 1898.417969 932.066406 C 1898.417969 926.574219 1901.160156 925.203125 1905.277344 925.203125 L 1922.84375 925.203125 C 1927.238281 925.203125 1929.707031 926.574219 1929.707031 930.417969 L 1929.980469 939.203125 C 1938.492188 928.496094 1947.824219 921.636719 1963.195312 921.636719 C 1965.390625 921.636719 1968.410156 922.183594 1970.878906 922.734375 C 1972.800781 923.28125 1973.625 924.105469 1973.625 926.300781 Z M 1973.625 926.300781 "/>
</g>
</svg>
